<?xml version="1.0" standalone="no"?>
<!DOCTYPE svg PUBLIC "-//W3C//DTD SVG 20010904//EN"
 "http://www.w3.org/TR/2001/REC-SVG-20010904/DTD/svg10.dtd">
<svg version="1.0" xmlns="http://www.w3.org/2000/svg"
 width="200.000000pt" height="200.000000pt" viewBox="0 0 200.000000 200.000000"
 preserveAspectRatio="xMidYMid meet">

<g transform="translate(0.000000,200.000000) scale(0.100000,-0.100000)"
fill="#000000" stroke="none">
<path d="M1217 1363 c3 -10 2 -15 -2 -11 -14 13 -37 -30 -29 -55 10 -33 39
-58 53 -44 6 6 18 12 26 13 13 2 14 0 4 -13 -11 -12 -10 -14 2 -12 7 2 24 -2
36 -9 12 -7 30 -9 40 -5 16 6 17 5 4 -13 -14 -18 -13 -18 6 1 26 24 21 65 -9
84 -11 7 -18 8 -14 3 3 -5 -1 -9 -8 -9 -8 0 -12 7 -8 15 3 9 1 13 -5 9 -6 -4
-9 6 -8 23 1 22 -1 27 -10 20 -9 -8 -14 -6 -19 5 -3 9 -18 15 -35 15 -25 0
-29 -3 -24 -17z m63 -68 c0 -6 -11 -12 -24 -13 -18 -1 -23 3 -22 16 2 9 -2 20
-8 24 -7 5 -4 8 7 8 9 0 17 6 17 13 1 14 29 -33 30 -48z m55 -35 c3 -5 1 -10
-4 -10 -6 0 -11 5 -11 10 0 6 2 10 4 10 3 0 8 -4 11 -10z"/>
<path d="M1358 1329 c7 -9 17 -30 22 -45 7 -24 8 -25 9 -7 1 12 -9 32 -21 45
-13 13 -17 16 -10 7z"/>
<path d="M1102 1280 c0 -14 2 -19 5 -12 2 6 2 18 0 25 -3 6 -5 1 -5 -13z"/>
<path d="M1139 1266 c-7 -20 -17 -32 -23 -29 -6 4 -2 -3 8 -15 20 -23 32 -30
21 -12 -4 6 5 10 20 10 21 0 26 4 21 16 -3 9 -9 27 -12 40 -9 34 -21 30 -35
-10z"/>
<path d="M1210 1208 c0 -7 -3 -23 -6 -35 -5 -18 -2 -23 13 -23 10 0 25 -6 32
-12 7 -7 12 -8 11 -3 -5 23 1 35 18 36 10 0 12 3 5 6 -7 2 -13 13 -13 24 0 14
-7 19 -30 19 -17 0 -30 -5 -30 -12z m50 -13 c0 -8 -9 -15 -20 -15 -11 0 -20 7
-20 15 0 8 9 15 20 15 11 0 20 -7 20 -15z"/>
<path d="M1369 1203 c-13 -16 -12 -17 4 -4 16 13 21 21 13 21 -2 0 -10 -8 -17
-17z"/>
<path d="M670 1160 c-13 -9 -12 -12 4 -25 11 -8 25 -15 30 -15 6 1 0 7 -13 14
-23 13 -23 14 -5 24 10 6 15 11 9 12 -5 0 -17 -5 -25 -10z"/>
<path d="M888 1163 c10 -4 10 -8 0 -21 -12 -15 -11 -16 4 -3 19 14 15 32 -5
30 -8 0 -8 -2 1 -6z"/>
<path d="M746 1151 c-4 -5 -2 -12 3 -15 5 -4 12 -2 15 3 4 5 2 12 -3 15 -5 4
-12 2 -15 -3z"/>
<path d="M815 1151 c-3 -5 -2 -12 3 -15 5 -3 9 1 9 9 0 17 -3 19 -12 6z"/>
<path d="M1110 1098 c0 -10 3 -18 8 -19 45 -7 72 -5 72 5 0 7 14 10 40 8 22
-2 40 -9 40 -14 0 -6 9 -8 20 -5 10 3 21 0 23 -6 3 -9 11 -9 30 0 39 18 34 39
-8 39 -19 0 -35 -5 -35 -10 0 -7 -3 -7 -8 1 -4 6 -27 11 -52 11 -25 0 -64 2
-88 3 -35 3 -42 1 -42 -13z"/>
<path d="M738 1093 c-21 -5 -24 -19 -5 -26 20 -6 47 4 47 19 0 14 -10 16 -42
7z"/>
<path d="M800 1085 c0 -10 10 -15 30 -15 35 0 40 15 8 24 -34 9 -38 8 -38 -9z"/>
<path d="M1060 973 c-23 -8 -40 -34 -40 -60 0 -26 41 -73 63 -73 23 0 61 35
53 48 -5 9 -11 8 -22 -3 -19 -19 -38 -19 -54 -1 -18 23 -8 61 18 64 12 2 22
10 22 18 0 14 -13 17 -40 7z"/>
<path d="M583 962 c-6 -4 -16 -19 -22 -33 -18 -50 27 -96 76 -78 30 11 20 35
-15 34 -22 0 -27 4 -27 25 0 21 5 25 30 25 20 1 30 6 30 15 0 17 -52 25 -72
12z"/>
<path d="M676 948 c-20 -28 -20 -48 0 -76 23 -34 83 -27 104 11 13 24 13 30 0
55 -21 37 -81 44 -104 10z m73 -22 c16 -20 3 -46 -24 -46 -13 0 -26 7 -29 16
-7 19 10 44 29 44 7 0 18 -6 24 -14z"/>
<path d="M800 910 l0 -60 39 0 c47 0 71 20 71 59 0 37 -29 61 -73 61 l-37 0 0
-60z m77 14 c8 -20 -8 -48 -31 -52 -12 -3 -16 4 -16 32 0 30 4 36 20 36 11 0
23 -7 27 -16z"/>
<path d="M922 910 l0 -60 44 0 c32 0 44 4 44 15 0 9 -9 15 -25 15 -14 0 -25 5
-25 10 0 6 11 10 25 10 14 0 25 5 25 10 0 6 -12 10 -26 10 -16 0 -24 5 -21 13
2 6 14 11 25 9 15 -2 22 2 22 12 0 12 -11 16 -44 16 l-44 0 0 -60z"/>
<path d="M1142 905 c2 -37 7 -55 15 -55 7 0 13 9 13 20 0 15 7 20 25 20 18 0
25 -5 25 -20 0 -11 7 -20 15 -20 12 0 15 13 15 55 0 42 -3 55 -15 55 -8 0 -15
-9 -15 -20 0 -15 -7 -20 -25 -20 -18 0 -25 5 -25 20 0 11 -7 20 -15 20 -12 0
-15 -12 -13 -55z"/>
<path d="M1260 905 l0 -55 45 0 c25 0 45 5 45 10 0 6 -11 10 -25 10 -14 0 -25
5 -25 10 0 6 9 10 20 10 11 0 20 7 20 15 0 8 -9 15 -20 15 -11 0 -20 5 -20 10
0 6 9 10 20 10 11 0 20 5 20 10 0 6 -18 10 -40 10 l-40 0 0 -55z"/>
<path d="M1362 905 c3 -54 20 -76 26 -35 2 14 11 20 28 20 15 0 24 6 24 15 0
9 -9 15 -25 15 -14 0 -25 5 -25 10 0 6 11 10 25 10 14 0 25 5 25 10 0 6 -18
10 -40 10 l-41 0 3 -55z"/>
<path d="M775 714 c-9 -25 -14 -48 -10 -52 4 -4 10 -1 12 6 3 6 12 12 22 12 9
0 23 -6 30 -12 11 -11 12 -8 7 14 -10 45 -25 78 -34 78 -5 0 -17 -21 -27 -46z
m33 -13 c-15 -5 -21 7 -13 26 7 17 8 17 15 -2 4 -11 3 -22 -2 -24z"/>
<path d="M986 747 c-12 -9 -17 -23 -14 -47 3 -31 6 -35 36 -38 29 -3 32 -1 32
22 0 18 -5 26 -17 25 -11 0 -13 -3 -5 -6 6 -2 12 -11 12 -20 0 -19 -30 -13
-43 9 -13 20 7 48 35 48 10 0 16 5 13 10 -8 14 -28 13 -49 -3z"/>
<path d="M1077 753 c-11 -10 -8 -93 3 -93 6 0 10 23 10 50 0 51 -1 55 -13 43z"/>
<path d="M1110 748 c0 -5 7 -8 15 -8 11 0 15 -11 15 -40 0 -22 5 -40 10 -40 6
0 10 18 10 40 0 22 5 40 11 40 5 0 8 4 4 10 -7 11 -65 9 -65 -2z"/>
<path d="M1206 753 c-10 -10 -7 -93 4 -93 6 0 10 17 11 38 l1 37 10 -38 c12
-45 27 -44 44 4 l12 34 1 -37 c1 -54 21 -47 21 6 0 61 -16 66 -39 14 l-18 -43
-12 37 c-13 39 -24 52 -35 41z"/>
<path d="M870 706 c0 -41 2 -46 23 -46 36 0 49 14 45 51 -3 30 -7 34 -35 37
-33 3 -33 3 -33 -42z m55 14 c7 -23 -10 -50 -31 -50 -9 0 -14 12 -14 35 0 28
4 35 19 35 11 0 23 -9 26 -20z"/>
<path d="M706 723 l-30 -16 28 -14 c15 -8 30 -12 33 -10 2 3 -6 8 -18 12 l-22
7 24 19 c29 23 24 23 -15 2z"/>
<path d="M1350 721 l25 -20 -25 -10 c-14 -5 -18 -10 -9 -10 8 -1 24 5 34 13
18 13 17 14 -16 30 l-34 17 25 -20z"/>
<path d="M780 570 c-23 -23 -24 -33 -10 -61 7 -12 21 -19 38 -18 l27 1 -25 7
c-19 5 -25 13 -25 36 0 23 5 30 25 35 21 5 22 7 7 13 -11 4 -25 -1 -37 -13z"/>
<path d="M862 540 c0 -41 2 -47 7 -25 3 17 13 30 21 30 8 0 18 -13 21 -30 6
-29 7 -29 8 8 1 33 -2 37 -23 37 -15 0 -26 7 -29 18 -3 9 -5 -8 -5 -38z"/>
<path d="M1128 569 c-2 -6 -2 -26 0 -45 3 -27 9 -34 26 -34 19 1 19 2 4 11
-22 12 -23 35 -3 46 12 7 12 10 -5 20 -13 9 -20 9 -22 2z"/>
<path d="M968 553 c27 -6 29 -23 2 -23 -13 0 -20 -7 -20 -20 0 -16 7 -20 31
-20 28 0 30 2 27 33 -3 28 -7 32 -33 34 -20 1 -23 0 -7 -4z m22 -43 c0 -5 -7
-10 -15 -10 -8 0 -15 5 -15 10 0 6 7 10 15 10 8 0 15 -4 15 -10z"/>
<path d="M1041 501 c1 -31 4 -46 6 -33 3 16 11 22 29 22 22 0 25 4 22 33 -3
27 -7 32 -30 33 -28 1 -28 0 -27 -55z m46 33 c8 -21 -13 -42 -28 -27 -13 13
-5 43 11 43 6 0 13 -7 17 -16z"/>
<path d="M1191 546 c-20 -24 -4 -56 27 -55 24 2 24 2 5 6 -31 6 -29 23 3 23
19 0 25 5 22 18 -4 22 -41 27 -57 8z m39 -6 c0 -5 -7 -10 -15 -10 -8 0 -15 5
-15 10 0 6 7 10 15 10 8 0 15 -4 15 -10z"/>
<path d="M1270 523 c0 -18 5 -33 10 -33 6 0 10 11 10 25 0 13 8 28 17 34 14 7
12 9 -10 8 -23 -2 -27 -6 -27 -34z"/>
</g>
</svg>
